<?xml version="1.0" encoding="iso-8859-1"?>
<!-- Uploaded to: SVG Repo, www.svgrepo.com, Generator: SVG Repo Mixer Tools -->
<svg fill="#FFFFFF" height="800px" width="800px" version="1.1" id="Layer_1" xmlns="http://www.w3.org/2000/svg" xmlns:xlink="http://www.w3.org/1999/xlink" 
	 viewBox="0 0 512 512" xml:space="preserve">
<g>
	<g>
		<path d="M466.093,196.97v-34.226c0-4.605-3.734-8.339-8.339-8.339h-3.897v-32.269c0-4.605-3.734-8.339-8.339-8.339
			s-8.339,3.734-8.339,8.339v32.269h-30.626V31.99c0-8.443,6.869-15.312,15.312-15.312s15.312,6.869,15.312,15.312v64.202
			c0,4.605,3.734,8.339,8.339,8.339c4.605,0,8.339-3.734,8.339-8.339V31.99C453.858,14.351,439.507,0,421.867,0
			c-17.639,0-31.99,14.351-31.99,31.99v122.415h-3.889c-4.605,0-8.339,3.734-8.339,8.339v33.281h-16.796v-2.453
			c0-13.178-10.721-23.899-23.899-23.899c-13.178,0-23.899,10.721-23.899,23.899v2.453h-18.653
			c-13.063,0-23.691,10.628-23.691,23.691V488.31c0,13.063,10.628,23.69,23.691,23.69H459.53c13.063,0,23.69-10.627,23.69-23.69
			V219.716C483.22,208.932,475.97,199.825,466.093,196.97z M394.327,171.084h55.09v24.942h-55.09V171.084z M336.954,186.351
			c3.982,0,7.221,3.24,7.221,7.221v2.453h-14.442v-2.453h-0.001C329.733,189.591,332.973,186.351,336.954,186.351z M459.53,495.321
			H294.401c-3.867,0-7.014-3.145-7.014-7.012V219.716c0-3.867,3.146-7.013,7.014-7.013h165.128c3.867,0,7.012,3.146,7.012,7.013
			v268.593h0.001C466.542,492.176,463.396,495.321,459.53,495.321z"/>
	</g>
</g>
<g>
	<g>
		<path d="M403.195,338.61h-52.459c-4.605,0-8.339,3.734-8.339,8.339c0,4.605,3.734,8.339,8.339,8.339h52.459
			c4.605,0,8.339-3.734,8.339-8.339C411.534,342.344,407.8,338.61,403.195,338.61z"/>
	</g>
</g>
<g>
	<g>
		<path d="M431.737,368.667H322.195c-4.606,0-8.339,3.734-8.339,8.339c0,4.605,3.734,8.339,8.339,8.339h109.542
			c4.605,0,8.339-3.734,8.339-8.339C440.076,372.4,436.342,368.667,431.737,368.667z"/>
	</g>
</g>
<g>
	<g>
		<path d="M322.714,398.722h-10.223c-4.605,0-8.339,3.734-8.339,8.339s3.734,8.339,8.339,8.339h10.223
			c4.605,0,8.339-3.734,8.339-8.339S327.319,398.722,322.714,398.722z"/>
	</g>
</g>
<g>
	<g>
		<path d="M441.44,398.722h-94.079c-4.605,0-8.339,3.734-8.339,8.339s3.734,8.339,8.339,8.339h94.079
			c4.605,0,8.339-3.734,8.339-8.339S446.045,398.722,441.44,398.722z"/>
	</g>
</g>
<g>
	<g>
		<path d="M431.737,428.778H322.195c-4.605,0-8.339,3.734-8.339,8.339c0,4.605,3.734,8.339,8.339,8.339h109.542
			c4.605,0,8.339-3.734,8.339-8.339C440.076,432.512,436.342,428.778,431.737,428.778z"/>
	</g>
</g>
<g>
	<g>
		<path d="M403.206,458.834h-52.482c-4.605,0-8.339,3.734-8.339,8.339c0,4.605,3.734,8.339,8.339,8.339h52.482
			c4.605,0,8.339-3.734,8.339-8.339C411.545,462.567,407.811,458.834,403.206,458.834z"/>
	</g>
</g>
<g>
	<g>
		<path d="M224.163,196.97v-34.226c0-4.605-3.734-8.339-8.339-8.339h-3.897V31.99c0-17.639-14.351-31.99-31.991-31.99
			c-17.641,0-31.99,14.351-31.99,31.99v122.415h-3.889c-4.605,0-8.339,3.734-8.339,8.339v33.281h-16.797v-2.453
			c0-13.178-10.722-23.899-23.899-23.899c-13.178,0-23.898,10.721-23.898,23.899v2.453H52.471
			c-13.063,0-23.691,10.628-23.691,23.691v213.366c0,4.605,3.734,8.339,8.339,8.339c4.605,0,8.339-3.734,8.339-8.339V219.716
			c0-3.867,3.147-7.013,7.014-7.013h165.128c3.867,0,7.013,3.146,7.013,7.013V488.31c0,3.867-3.146,7.012-7.013,7.012H52.471
			c-3.867,0-7.014-3.145-7.014-7.012v-27.431c0-4.605-3.734-8.339-8.339-8.339c-4.605,0-8.339,3.734-8.339,8.339v27.431
			c0,13.063,10.628,23.69,23.691,23.69h165.128c13.063,0,23.691-10.627,23.691-23.69V219.716
			C241.289,208.932,234.04,199.826,224.163,196.97z M102.245,196.025H87.802v-2.453c0-3.982,3.24-7.221,7.221-7.221
			s7.221,3.24,7.221,7.221V196.025z M164.623,31.99h0.001c0-8.443,6.869-15.312,15.312-15.312s15.312,6.869,15.312,15.312v122.415
			h-30.626V31.99z M207.486,196.025h-55.09v-24.942h55.09V196.025z"/>
	</g>
</g>
<g>
	<g>
		<path d="M161.264,338.61h-52.459c-4.605,0-8.339,3.734-8.339,8.339c0,4.605,3.734,8.339,8.339,8.339h52.459
			c4.605,0,8.339-3.734,8.339-8.339C169.603,342.344,165.869,338.61,161.264,338.61z"/>
	</g>
</g>
<g>
	<g>
		<path d="M146.672,368.667H80.264c-4.605,0-8.339,3.734-8.339,8.339c0,4.605,3.734,8.339,8.339,8.339h66.408
			c4.605,0,8.339-3.734,8.339-8.339C155.011,372.4,151.278,368.667,146.672,368.667z"/>
	</g>
</g>
<g>
	<g>
		<path d="M189.806,368.667h-15.338c-4.605,0-8.339,3.734-8.339,8.339c0,4.605,3.734,8.339,8.339,8.339h15.338
			c4.605,0,8.339-3.734,8.339-8.339C198.145,372.4,194.412,368.667,189.806,368.667z"/>
	</g>
</g>
<g>
	<g>
		<path d="M199.509,398.722H70.561c-4.605,0-8.339,3.734-8.339,8.339s3.734,8.339,8.339,8.339h128.948
			c4.605,0,8.339-3.734,8.339-8.339S204.115,398.722,199.509,398.722z"/>
	</g>
</g>
<g>
	<g>
		<path d="M92.192,428.778H80.264c-4.605,0-8.339,3.734-8.339,8.339c0,4.605,3.734,8.339,8.339,8.339h11.928
			c4.605,0,8.339-3.734,8.339-8.339C100.531,432.512,96.797,428.778,92.192,428.778z"/>
	</g>
</g>
<g>
	<g>
		<path d="M189.806,428.778h-72.597c-4.605,0-8.339,3.734-8.339,8.339c0,4.605,3.734,8.339,8.339,8.339h72.597
			c4.605,0,8.339-3.734,8.339-8.339C198.145,432.512,194.412,428.778,189.806,428.778z"/>
	</g>
</g>
<g>
	<g>
		<path d="M161.276,458.834h-52.482c-4.605,0-8.339,3.734-8.339,8.339c0,4.605,3.734,8.339,8.339,8.339h52.482
			c4.605,0,8.339-3.734,8.339-8.339C169.615,462.567,165.882,458.834,161.276,458.834z"/>
	</g>
</g>
<g>
	<g>
		<path d="M203.205,224.928h-94.706c-4.605,0-8.339,3.734-8.339,8.339c0,4.605,3.734,8.339,8.339,8.339h86.366v58.107H75.205
			v-58.107h8.277c4.605,0,8.339-3.734,8.339-8.339c0-4.605-3.734-8.339-8.339-8.339H66.866c-4.605,0-8.339,3.734-8.339,8.339v74.785
			c0,4.605,3.734,8.339,8.339,8.339h136.339c4.605,0,8.339-3.734,8.339-8.339v-74.785
			C211.544,228.662,207.81,224.928,203.205,224.928z"/>
	</g>
</g>
<g>
	<g>
		<path d="M445.135,224.928H308.796c-4.605,0-8.339,3.734-8.339,8.339v74.785c0,4.605,3.734,8.339,8.339,8.339h136.339
			c4.605,0,8.339-3.734,8.339-8.339v-74.785C453.474,228.661,449.74,224.928,445.135,224.928z M436.796,299.713H317.135v-58.107
			h119.661V299.713z"/>
	</g>
</g>
</svg>